<?xml version="1.0" encoding="utf-8"?>
<!-- Generator: Adobe Illustrator 22.0.1, SVG Export Plug-In . SVG Version: 6.00 Build 0)  -->
<svg version="1.1" id="Layer_1" xmlns="http://www.w3.org/2000/svg" xmlns:xlink="http://www.w3.org/1999/xlink" x="0px" y="0px"
	 viewBox="0 0 178.3 51.7" style="enable-background:new 0 0 178.3 51.7;" xml:space="preserve">
<style type="text/css">
	.st0{fill:#010101;}
</style>
<g>
	<polygon class="st0" points="32.1,31.5 32.1,31.5 32.1,31.5 	"/>
	<g>
		<g>
			<path class="st0" d="M17,24.9c-0.1,0-0.2,0-0.3-0.1l-11-5.1c-0.3-0.1-0.4-0.4-0.4-0.7c0-0.3,0.1-0.6,0.4-0.7l11-6.6
				c0.2-0.1,0.5-0.1,0.8,0c0.2,0.1,0.4,0.4,0.4,0.7v11.6c0,0.3-0.1,0.5-0.4,0.7C17.3,24.9,17.1,24.9,17,24.9z M7.7,19l8.6,3.9v-9.1
				L7.7,19z"/>
		</g>
		<g>
			<path class="st0" d="M20.6,24.9c-0.1,0-0.3,0-0.4-0.1c-0.2-0.1-0.4-0.4-0.4-0.7V12.5c0-0.3,0.1-0.5,0.4-0.7
				c0.2-0.1,0.5-0.1,0.8,0l11,6.6c0.2,0.1,0.4,0.4,0.4,0.7c0,0.3-0.2,0.5-0.4,0.7l-11,5.1C20.9,24.9,20.7,24.9,20.6,24.9z
				 M21.4,13.9v9.1L30,19L21.4,13.9z"/>
		</g>
		<g>
			<path class="st0" d="M20.6,38.2c-0.1,0-0.3,0-0.4-0.1c-0.2-0.1-0.4-0.4-0.4-0.7V24.1c0-0.3,0.2-0.5,0.4-0.7
				c0.2-0.1,0.5-0.1,0.8,0l11.8,7.4c0.2,0.1,0.4,0.4,0.4,0.7c0,0.3-0.2,0.5-0.4,0.7l-11.8,6C20.9,38.2,20.8,38.2,20.6,38.2z
				 M21.4,25.5v10.7l9.4-4.8L21.4,25.5z"/>
		</g>
		<g>
			<path class="st0" d="M17,38.2c-0.1,0-0.2,0-0.3-0.1l-11.8-6c-0.2-0.1-0.4-0.4-0.4-0.7c0-0.3,0.1-0.5,0.4-0.7l11.8-7.4
				c0.2-0.1,0.5-0.2,0.8,0c0.2,0.1,0.4,0.4,0.4,0.7v13.3c0,0.3-0.1,0.5-0.4,0.7C17.3,38.2,17.1,38.2,17,38.2z M6.8,31.4l9.4,4.8
				V25.5L6.8,31.4z"/>
		</g>
	</g>
	<g>
		<g>
			<path class="st0" d="M9.9,39.6c-0.3,0-0.5-0.1-0.7-0.4l-4.6-7.3c-0.2-0.3-0.2-0.7,0.1-0.9c0.2-0.3,0.6-0.3,0.9-0.2l11.8,6
				c0.3,0.1,0.5,0.5,0.4,0.8c0,0.3-0.3,0.6-0.6,0.7L10,39.6C10,39.6,9.9,39.6,9.9,39.6z M7.4,33.5l2.8,4.5l4.4-0.8L7.4,33.5z"/>
		</g>
		<g>
			<path class="st0" d="M5.2,32.3c-0.1,0-0.3,0-0.4-0.1c-0.2-0.1-0.4-0.4-0.4-0.7L5.2,19c0-0.3,0.2-0.5,0.4-0.6
				c0.2-0.1,0.5-0.1,0.7,0l11,5.1c0.3,0.1,0.4,0.4,0.4,0.7s-0.1,0.6-0.4,0.7L5.7,32.2C5.5,32.2,5.4,32.3,5.2,32.3z M6.7,20.3
				l-0.6,9.8l9.3-5.8L6.7,20.3z"/>
		</g>
		<g>
			<path class="st0" d="M31.6,19.9c-0.1,0-0.3,0-0.4-0.1l-11-6.6c-0.3-0.2-0.4-0.5-0.4-0.8c0-0.3,0.3-0.6,0.6-0.6l3.9-1
				c0.3-0.1,0.6,0,0.8,0.2l7.1,7.6c0.3,0.3,0.3,0.7,0,1C32.1,19.8,31.8,19.9,31.6,19.9z M22.6,12.8l4.7,2.8l-3-3.3L22.6,12.8z"/>
		</g>
		<g>
			<path class="st0" d="M27.8,39.6c0,0-0.1,0-0.1,0l-7.1-1.4c-0.3-0.1-0.6-0.3-0.6-0.7c0-0.3,0.1-0.6,0.4-0.8l11.8-6
				c0.3-0.2,0.7-0.1,0.9,0.2c0.2,0.3,0.3,0.6,0.1,0.9l-4.6,7.3C28.3,39.5,28,39.6,27.8,39.6z M23,37.1l4.4,0.8l2.8-4.5L23,37.1z"/>
		</g>
		<g>
			<path class="st0" d="M6,19.9c-0.2,0-0.4-0.1-0.6-0.3c-0.2-0.3-0.2-0.7,0-1l7.1-7.6c0.2-0.2,0.5-0.3,0.8-0.2l3.9,1
				c0.3,0.1,0.5,0.3,0.6,0.6c0,0.3-0.1,0.6-0.4,0.8l-11,6.6C6.3,19.8,6.2,19.9,6,19.9z M13.3,12.3l-3,3.3l4.7-2.8L13.3,12.3z"/>
		</g>
		<g>
			<path class="st0" d="M32.4,32.3c-0.1,0-0.3,0-0.4-0.1l-11.8-7.4c-0.2-0.2-0.4-0.4-0.4-0.7s0.2-0.5,0.4-0.7l11-5.1
				c0.2-0.1,0.5-0.1,0.7,0c0.2,0.1,0.4,0.4,0.4,0.6l0.8,12.4c0,0.3-0.1,0.6-0.4,0.7C32.7,32.2,32.5,32.3,32.4,32.3z M22.3,24.3
				l9.3,5.8l-0.6-9.8L22.3,24.3z"/>
		</g>
	</g>
	<path class="st0" d="M41.8,17.1h4.8c2.2,0,3.8,0.3,4.8,0.9c1,0.6,1.5,1.6,1.5,3c0,0.9-0.2,1.7-0.7,2.3c-0.4,0.6-1,0.9-1.7,1.1v0.1
		c1,0.2,1.7,0.6,2.1,1.2c0.4,0.6,0.7,1.4,0.7,2.4c0,1.4-0.5,2.5-1.5,3.3c-1,0.8-2.4,1.2-4.2,1.2h-5.8V17.1z M45.1,23.2H47
		c0.9,0,1.5-0.1,1.9-0.4c0.4-0.3,0.6-0.7,0.6-1.4c0-0.6-0.2-1-0.7-1.3s-1.1-0.4-2.1-0.4h-1.7V23.2z M45.1,25.8v4h2.1
		c0.9,0,1.6-0.2,2-0.5c0.4-0.3,0.6-0.9,0.6-1.6c0-1.3-0.9-1.9-2.8-1.9H45.1z"/>
	<path class="st0" d="M62.7,20.5c0.4,0,0.8,0,1.1,0.1l-0.2,3c-0.3-0.1-0.6-0.1-1-0.1c-1,0-1.8,0.3-2.4,0.8c-0.6,0.5-0.9,1.3-0.9,2.2
		v6h-3.2V20.7h2.4l0.5,2h0.2c0.4-0.7,0.9-1.2,1.5-1.6C61.3,20.7,62,20.5,62.7,20.5z"/>
	<path class="st0" d="M72.6,32.6L72,31h-0.1c-0.5,0.7-1.1,1.2-1.7,1.4c-0.6,0.3-1.3,0.4-2.3,0.4c-1.1,0-2-0.3-2.7-1
		c-0.7-0.6-1-1.6-1-2.8c0-1.3,0.4-2.2,1.3-2.8c0.9-0.6,2.2-0.9,4-1l2.1-0.1v-0.5c0-1.2-0.6-1.8-1.8-1.8c-0.9,0-2.1,0.3-3.3,0.9
		l-1.1-2.2c1.4-0.7,2.9-1.1,4.5-1.1c1.6,0,2.8,0.3,3.7,1c0.8,0.7,1.3,1.7,1.3,3.2v7.9H72.6z M71.7,27.1l-1.2,0
		c-0.9,0-1.6,0.2-2.1,0.5c-0.5,0.3-0.7,0.8-0.7,1.4c0,0.9,0.5,1.4,1.6,1.4c0.7,0,1.3-0.2,1.8-0.6c0.4-0.4,0.7-1,0.7-1.7V27.1z"/>
	<path class="st0" d="M78.1,17.7c0-1.1,0.6-1.6,1.8-1.6s1.8,0.5,1.8,1.6c0,0.5-0.1,0.9-0.4,1.2s-0.7,0.4-1.3,0.4
		C78.7,19.3,78.1,18.7,78.1,17.7z M81.4,32.6h-3.2V20.7h3.2V32.6z"/>
	<path class="st0" d="M95.8,32.6h-3.2v-6.9c0-0.9-0.2-1.5-0.5-1.9c-0.3-0.4-0.8-0.6-1.5-0.6c-0.9,0-1.6,0.3-2,0.9
		c-0.4,0.6-0.6,1.6-0.6,3v5.6h-3.2V20.7h2.5l0.4,1.5h0.2c0.4-0.6,0.9-1,1.5-1.3c0.6-0.3,1.4-0.4,2.2-0.4c1.4,0,2.4,0.4,3.1,1.1
		c0.7,0.7,1.1,1.8,1.1,3.2V32.6z"/>
	<path class="st0" d="M108.7,28.5c0,1.4-0.5,2.4-1.5,3.2c-1,0.8-2.3,1.1-4,1.1c-1.8,0-3.2-0.2-4.2-0.7v-1.7c0.6,0.3,1.3,0.5,2.1,0.6
		c0.7,0.2,1.5,0.2,2.2,0.2c1.2,0,2.1-0.2,2.7-0.7c0.6-0.5,0.9-1.1,0.9-1.9c0-0.5-0.1-1-0.3-1.3c-0.2-0.3-0.6-0.7-1.1-0.9
		c-0.5-0.3-1.3-0.6-2.3-1c-1.4-0.5-2.5-1.1-3.1-1.8c-0.6-0.7-0.9-1.6-0.9-2.8c0-1.2,0.4-2.1,1.3-2.8c0.9-0.7,2.1-1.1,3.6-1.1
		c1.5,0,3,0.3,4.2,0.8l-0.6,1.6c-1.3-0.5-2.5-0.8-3.7-0.8c-1,0-1.7,0.2-2.2,0.6c-0.5,0.4-0.8,1-0.8,1.7c0,0.5,0.1,1,0.3,1.3
		c0.2,0.3,0.5,0.7,1,0.9c0.5,0.3,1.2,0.6,2.2,0.9c1.6,0.6,2.7,1.2,3.4,1.9C108.4,26.6,108.7,27.4,108.7,28.5z"/>
	<path class="st0" d="M114.9,31.4c0.3,0,0.6,0,0.9-0.1c0.3,0,0.5-0.1,0.7-0.1v1.3c-0.2,0.1-0.5,0.2-0.8,0.2s-0.7,0.1-1,0.1
		c-2.2,0-3.4-1.2-3.4-3.5v-6.9h-1.7v-0.8l1.7-0.7l0.7-2.5h1V21h3.4v1.4h-3.4v6.8c0,0.7,0.2,1.2,0.5,1.6
		C113.9,31.2,114.3,31.4,114.9,31.4z"/>
	<path class="st0" d="M126,32.6l-0.3-1.7h-0.1c-0.6,0.7-1.2,1.2-1.7,1.5c-0.6,0.3-1.3,0.4-2.2,0.4c-1.2,0-2.1-0.3-2.7-0.9
		c-0.7-0.6-1-1.4-1-2.5c0-2.3,1.9-3.6,5.6-3.7l2-0.1v-0.7c0-0.9-0.2-1.6-0.6-2c-0.4-0.4-1-0.7-1.9-0.7c-1,0-2.1,0.3-3.3,0.9
		l-0.5-1.3c0.6-0.3,1.2-0.6,1.9-0.7c0.7-0.2,1.4-0.3,2-0.3c1.4,0,2.4,0.3,3.1,0.9c0.7,0.6,1,1.6,1,3v7.9H126z M122,31.4
		c1.1,0,2-0.3,2.6-0.9c0.6-0.6,0.9-1.4,0.9-2.5v-1l-1.8,0.1c-1.4,0-2.4,0.3-3,0.7c-0.6,0.4-0.9,1-0.9,1.8c0,0.6,0.2,1.1,0.6,1.5
		S121.3,31.4,122,31.4z"/>
	<path class="st0" d="M135.1,31.4c0.3,0,0.6,0,0.9-0.1c0.3,0,0.5-0.1,0.7-0.1v1.3c-0.2,0.1-0.5,0.2-0.8,0.2s-0.7,0.1-1,0.1
		c-2.2,0-3.4-1.2-3.4-3.5v-6.9h-1.7v-0.8l1.7-0.7l0.7-2.5h1V21h3.4v1.4h-3.4v6.8c0,0.7,0.2,1.2,0.5,1.6
		C134,31.2,134.5,31.4,135.1,31.4z"/>
	<path class="st0" d="M138.8,17.8c0-0.4,0.1-0.7,0.3-0.9c0.2-0.2,0.4-0.3,0.7-0.3c0.3,0,0.5,0.1,0.7,0.3c0.2,0.2,0.3,0.5,0.3,0.9
		c0,0.4-0.1,0.7-0.3,0.9c-0.2,0.2-0.4,0.3-0.7,0.3c-0.3,0-0.5-0.1-0.7-0.3C138.9,18.5,138.8,18.2,138.8,17.8z M140.7,32.6H139V21
		h1.8V32.6z"/>
	<path class="st0" d="M154.1,26.8c0,1.9-0.5,3.4-1.4,4.4c-1,1.1-2.3,1.6-4,1.6c-1,0-2-0.2-2.8-0.7c-0.8-0.5-1.4-1.2-1.9-2.1
		c-0.4-0.9-0.7-2-0.7-3.2c0-1.9,0.5-3.4,1.4-4.4c0.9-1.1,2.3-1.6,3.9-1.6c1.6,0,2.9,0.5,3.9,1.6C153.6,23.5,154.1,24.9,154.1,26.8z
		 M145.2,26.8c0,1.5,0.3,2.6,0.9,3.4c0.6,0.8,1.5,1.2,2.6,1.2c1.2,0,2-0.4,2.6-1.2c0.6-0.8,0.9-1.9,0.9-3.4c0-1.5-0.3-2.6-0.9-3.4
		c-0.6-0.8-1.5-1.1-2.6-1.1c-1.2,0-2,0.4-2.6,1.1C145.5,24.2,145.2,25.3,145.2,26.8z"/>
	<path class="st0" d="M164.7,32.6v-7.5c0-0.9-0.2-1.7-0.6-2.1c-0.4-0.5-1.1-0.7-2-0.7c-1.2,0-2.1,0.3-2.7,1
		c-0.6,0.7-0.8,1.7-0.8,3.3v6.1h-1.8V21h1.4l0.3,1.6h0.1c0.4-0.6,0.9-1,1.5-1.3c0.6-0.3,1.4-0.5,2.2-0.5c1.4,0,2.5,0.3,3.2,1
		c0.7,0.7,1.1,1.8,1.1,3.2v7.6H164.7z"/>
</g>
<g id="g2226" transform="translate(-101.9411,229.36748)">
	<path class="st0" d="M272.1-212c-1.3,0-2.3,1-2.3,2.3s1,2.3,2.3,2.3s2.3-1,2.3-2.3S273.3-212,272.1-212z M272.1-207.9
		c-1,0-1.9-0.8-1.9-1.9c0-1,0.8-1.9,1.9-1.9c1,0,1.9,0.8,1.9,1.9C273.9-208.7,273.1-207.9,272.1-207.9z"/>
	<path class="st0" d="M273.1-208.5c0,0,0-0.1-0.1-0.1c0-0.1-0.1-0.2-0.2-0.3c-0.1-0.2-0.2-0.4-0.3-0.5c-0.1-0.1-0.1-0.1-0.2-0.2
		l-0.1,0l0,0c0.2,0,0.4-0.1,0.5-0.2c0.1-0.1,0.2-0.3,0.2-0.5c0-0.1,0-0.2-0.1-0.3c0-0.1-0.1-0.1-0.1-0.2c-0.1-0.1-0.2-0.2-0.4-0.2
		c-0.1,0-0.2,0-0.7,0l-0.5,0v1.2v1.2h0.2h0.2v-0.5v-0.5l0.1,0c0.2,0,0.3,0,0.3,0c0.1,0,0.2,0.1,0.3,0.3c0.1,0.1,0.1,0.2,0.3,0.5
		c0,0,0,0.1,0,0.1s0,0.1,0,0.1l0,0.1h0.2L273.1-208.5L273.1-208.5z M272.1-209.9c0,0-0.1,0-0.4,0l-0.3,0v-0.4v-0.4l0.3,0
		c0.3,0,0.3,0,0.4,0c0.1,0,0.1,0,0.2,0.1c0.1,0,0.2,0.1,0.2,0.2c0,0,0,0,0,0.1c0,0.1,0,0.2-0.1,0.2c0,0,0,0-0.1,0.1
		C272.3-209.9,272.2-209.9,272.1-209.9z"/>
</g>
</svg>
