<svg id="Layer_1" data-name="Layer 1" xmlns="http://www.w3.org/2000/svg" viewBox="0 0 60 60"><defs><style>.cls-1{fill:#fff;}</style></defs><circle class="cls-1" cx="30" cy="30" r="30"/><path d="M44.11,26.65c.12-1.43.26-2.76.39-4a4.89,4.89,0,0,0-.59-3.12q-.78-1.28.78-1.08a12.72,12.72,0,0,1,3.22.88c1.11.46,1.4,1,.88,1.66a20.72,20.72,0,0,0-2.14,5.27c1.43-.26,2.6-.48,3.51-.68a3.37,3.37,0,0,1,2.74.68c.9.66.61,1.15-.88,1.47s-3.36.62-5.57.88q-.59,2.54-1.17,5.47,3.12-.39,6.35-.69a47.4,47.4,0,0,0,5.56-.78,4.31,4.31,0,0,1,3.91.88q1.56,1.36,0,1.47c-1.05.06-2.9.13-5.57.19s-8.17.62-16.5,1.66c1.95.39,2.8.85,2.54,1.37A6.62,6.62,0,0,0,41,39.94a35.1,35.1,0,0,0,5.67-1,3.88,3.88,0,0,1,2.44,0,11.92,11.92,0,0,1,2.83,1.17c.91.52,1,1,.29,1.56s-1.4,2-2.05,4.3q-1.36,3.91-2.25,4.59c-.58.46-1.07.17-1.46-.88a94,94,0,0,1-12.89,1.76,1.25,1.25,0,0,0,.68,1.17A13.19,13.19,0,0,1,35.9,53.8c.65.53.52,1-.39,1.37a17.56,17.56,0,0,0-3.81,2.64A13.75,13.75,0,0,1,26,60.64q-3.22.78-.69-.59a22.64,22.64,0,0,0,4.89-3.61c1.56-1.49,2.34-2.9,2.34-4.2-.65.65-1.17.2-1.56-1.37l-.78-2.73a11.94,11.94,0,0,0-2-5.08c-.78-.91-.84-1.43-.19-1.56a11.08,11.08,0,0,1,2.64-.1,42.3,42.3,0,0,0,7.71-1.07A4.5,4.5,0,0,0,37.27,37c-4.17.78-7.32,1.33-9.47,1.66s-3.81.58-5,.78a5.62,5.62,0,0,1-3.91-1.08C17.47,37.46,18,37,20.47,37a119.37,119.37,0,0,0,15-1.76c-.13-1-.26-2.6-.39-4.69-3.26.52-5.37.46-6.35-.19s-.85-1.05.39-1.18,3.09-.39,5.57-.78c-.52-3-1.21-4.91-2-5.76s-.17-1.2,2-1.07c2.34.52,3.32,1.14,2.93,1.85A11.39,11.39,0,0,0,37.07,28C39.16,27.63,41.5,27.18,44.11,26.65ZM38.44,49.51V46.38c-1.3.26-2.18.43-2.64.49a2.31,2.31,0,0,1-1.66-.68c-.65-.52-.58-.82.2-.88s2.15-.3,4.1-.69V41.69q-4.09.78-6.83,1.37c.51,2.73,1,5.15,1.56,7.23Q35.51,49.9,38.44,49.51Zm4.88-15.24.39-5.08q-4.1.58-6.44,1l.39,4.88Zm-.19,9.57a2.85,2.85,0,0,1,2.15.49q1,.69-.78,1.17a21.87,21.87,0,0,1-3.72.69l-.19,2.93a22.26,22.26,0,0,0,3.61-.49,4.47,4.47,0,0,1,2.44.1,29.68,29.68,0,0,0,1.47-5.47,4.07,4.07,0,0,0-.2-2,1.52,1.52,0,0,0-1.07-.78c-.52-.12-2.48.13-5.86.78l-.19,2.93ZM46.84,53a15.68,15.68,0,0,1,5.66,3.13,4.75,4.75,0,0,1,1.86,4.2q-.3,2.24-2.54.39a37.54,37.54,0,0,1-5.18-5.57Q43.33,51.86,46.84,53Z" transform="translate(-10 -10)"/></svg>