<?xml version="1.0" encoding="utf-8"?>
<!-- Generator: Adobe Illustrator 13.0.0, SVG Export Plug-In . SVG Version: 6.00 Build 14948)  -->
<!DOCTYPE svg PUBLIC "-//W3C//DTD SVG 1.1//EN" "http://www.w3.org/Graphics/SVG/1.1/DTD/svg11.dtd">
<svg version="1.1" id="Layer_1" xmlns="http://www.w3.org/2000/svg" xmlns:xlink="http://www.w3.org/1999/xlink" x="0px" y="0px"
	 width="48px" height="48px" viewBox="0 0 48 48" enable-background="new 0 0 48 48" xml:space="preserve">

<g>
	<rect x="-1.006" y="6.633" fill="white"  width="53.506" height="45.2"/>
	<path d="M28.096,9.612c0.128-1.431,0.26-2.765,0.391-4.004c0.128-1.236-0.067-2.276-0.586-3.125
		c-0.521-0.845-0.263-1.202,0.781-1.074c1.041,0.131,2.115,0.424,3.223,0.879c1.104,0.458,1.397,1.01,0.879,1.66
		c-0.521,0.653-1.239,2.411-2.148,5.273c1.432-0.259,2.604-0.488,3.516-0.684c0.909-0.195,1.822,0.034,2.734,0.684
		c0.909,0.653,0.616,1.142-0.879,1.465c-1.498,0.327-3.354,0.62-5.566,0.879c-0.391,1.694-0.781,3.516-1.172,5.469
		c2.081-0.259,4.199-0.488,6.348-0.684s4.004-0.455,5.566-0.781c1.563-0.323,2.862-0.03,3.906,0.879
		c1.041,0.913,1.041,1.401,0,1.465c-1.044,0.067-2.899,0.131-5.566,0.195c-2.67,0.067-8.173,0.62-16.504,1.66
		c1.953,0.391,2.799,0.849,2.539,1.367c-0.263,0.522-0.458,1.108-0.586,1.758c3.125-0.391,5.011-0.714,5.664-0.977
		c0.65-0.259,1.465-0.259,2.441,0c0.977,0.263,1.92,0.653,2.832,1.172c0.909,0.522,1.007,1.044,0.293,1.563
		c-0.717,0.522-1.4,1.953-2.051,4.297c-0.912,2.606-1.66,4.136-2.246,4.59c-0.586,0.458-1.074,0.165-1.465-0.879
		c-6.513,1.172-10.81,1.758-12.891,1.758c0,0.522,0.226,0.913,0.684,1.172c0.455,0.263,1.007,0.653,1.66,1.172
		c0.65,0.522,0.519,0.977-0.391,1.367c-0.913,0.391-2.182,1.27-3.809,2.637c-1.63,1.367-3.516,2.31-5.664,2.832
		c-2.148,0.519-2.377,0.323-0.684-0.586c1.69-0.913,3.32-2.114,4.883-3.613c1.563-1.495,2.344-2.896,2.344-4.199
		c-0.653,0.653-1.172,0.195-1.563-1.367l-0.781-2.734c-0.522-2.472-1.172-4.165-1.953-5.078c-0.781-0.909-0.849-1.431-0.195-1.563
		c0.65-0.128,1.529-0.162,2.637-0.098c1.104,0.067,3.677-0.293,7.715-1.074c0-1.431-0.391-2.539-1.172-3.32
		c-4.169,0.781-7.324,1.337-9.473,1.66c-2.148,0.327-3.809,0.586-4.98,0.781S4.332,22.244,2.9,21.331
		c-1.435-0.909-0.913-1.367,1.563-1.367c2.603,0,7.617-0.586,15.039-1.758c-0.131-1.041-0.263-2.603-0.391-4.688
		c-3.256,0.522-5.371,0.458-6.348-0.195c-0.977-0.65-0.849-1.041,0.391-1.172c1.236-0.128,3.091-0.391,5.566-0.781
		c-0.522-2.994-1.206-4.913-2.051-5.762c-0.849-0.845-0.165-1.202,2.051-1.074c2.344,0.522,3.32,1.142,2.93,1.855
		c-0.391,0.717-0.586,2.246-0.586,4.59C23.146,10.589,25.489,10.134,28.096,9.612z M22.432,32.464v-3.125
		c-1.303,0.263-2.182,0.425-2.637,0.488c-0.458,0.067-1.01-0.161-1.66-0.684c-0.653-0.519-0.586-0.812,0.195-0.879
		c0.781-0.063,2.148-0.293,4.102-0.684v-2.93c-2.734,0.522-5.014,0.977-6.836,1.367c0.519,2.734,1.041,5.146,1.563,7.227
		C18.721,32.986,20.479,32.727,22.432,32.464z M27.314,17.229l0.391-5.078c-2.734,0.391-4.883,0.717-6.445,0.977l0.391,4.883
		C23.472,17.751,25.361,17.492,27.314,17.229z M27.119,26.8c0.781-0.128,1.495,0.034,2.148,0.488
		c0.65,0.458,0.391,0.849-0.781,1.172c-1.172,0.327-2.411,0.556-3.711,0.684l-0.195,2.93c1.69-0.128,2.896-0.293,3.613-0.488
		c0.714-0.195,1.529-0.161,2.441,0.098c0.909-2.734,1.397-4.556,1.465-5.469c0.064-0.909,0-1.563-0.195-1.953
		s-0.556-0.65-1.074-0.781c-0.521-0.128-2.475,0.131-5.859,0.781l-0.195,2.93L27.119,26.8z M30.83,35.979
		c2.344,0.781,4.229,1.825,5.664,3.125c1.432,1.304,2.051,2.7,1.855,4.199c-0.195,1.495-1.044,1.626-2.539,0.391
		c-1.498-1.239-3.223-3.091-5.176-5.566C28.419,35.916,28.486,35.198,30.83,35.979z"/>
</g>
</svg>
