<svg id="Layer_1" data-name="Layer 1" xmlns="http://www.w3.org/2000/svg" viewBox="0 0 220 220"><defs><style>.cls-1{fill:#fff;}</style></defs><circle class="cls-1" cx="110" cy="110" r="110"/><path d="M484.24,433.09c5.29-.63,8.1,4.38,12.36,7.64l6-11c2.41,6.72-5.14,12.27-1.15,19.3,7.38-1.8,15-3.58,22.53-5.61.72-.19,1.42-1.86,1.47-2.88.22-5.24.26-10.49.28-15.74s-.78-6-6-6.48c-1-.09-1.91-.25-2.87-.38l-.41-1c1.7-.82,3.33-2.1,5.12-2.38,6.57-1,12.3,1.1,17.31,5.36,2.91,2.48,2.86,5.66,2.07,8.95-.89,3.75-1.94,7.47-3,11.41a8.56,8.56,0,0,0,1.75.71c8.28,1.2,10.8,8.65,11.92,15.33.41,2.44-1.29,3.15-3.47,3.33A111,111,0,0,0,536,461.05a6.69,6.69,0,0,0-4,3,87,87,0,0,0-4,9.3c4.6,0,8.55.25,12.46-.05,9.21-.72,18.39-1.84,27.6-2.53,7.25-.54,12.19,4.76,11.58,11.87-.29,3.36-1.83,4.92-5.32,4.72-7.6-.42-15.22-.86-22.84-1-9.86-.14-19.72,0-29.58.11-3.87.05-4.71,1.37-4.57,6.66,2.59,0,5.2.06,7.8,0,8.5-.21,15.86,2.78,22.6,7.73a7.85,7.85,0,0,1,3.47,7.76c-1.54,13.54-5.89,26.31-11.43,38.63-2.93,6.52-10.27,6.9-14.45,1-2.56-3.57-5.44-4.72-9.64-3.4-6.66,2.1-13.44,3.82-20.07,6-1.77.58-5.34.29-4,4.22.06.17-.72.57-1,.94-1.33,1.61-3.06,3.07-3.87,4.92a28.12,28.12,0,0,1-8.07,10.56c-2.18,1.84-3.47,4.78-5,7.29-1.23,2-2.28,4.08-3.44,6.18-9.75-7.52-12.51-24.39-5.73-26.37.25,1.31.49,2.6.75,3.87.7,3.53,2,4.39,5.19,2.86,5.38-2.61,10.63-5.48,16.33-8.45-2.57-4.3-4.72-8.51-7.42-12.33-7.59-10.78-8.91-22.83-7.49-35.44.24-2.11,1.37-4.11,2.08-6.16l1.22.05L477,515.55c4.87-8.93,13-12.23,21-15.64,1.37-.58,3.37-2,3.34-3-.07-1.93-1.37-3.82-2.16-5.73a33.37,33.37,0,0,0-4.2,2.75c-.68.59-.87,1.73-1.23,2.52-.46.07-.82.23-.92.13-3.75-3.65-7.59-2.27-11.6-.42-13.25,6.11-26.49,12.27-39.89,18a33.8,33.8,0,0,1-12.2,2.83,8.71,8.71,0,0,1-8.48-11.64,4.65,4.65,0,0,1,3.05-2.4c3.95-.85,8.16-.8,11.95-2.06,14.56-4.83,29-10.11,43.5-15.06,2.51-.86,3.13-1.92,2.82-4.55-.61-5.13-2.44-9.23-6.91-12.17a54.35,54.35,0,0,1-7.76-6.47c-1.42-1.39-2.38-3.25-4-5.57,1.62.08,2.33-.1,2.75.16,5.3,3.35,10.17.43,15-1.17.84-.28,1.51-2.2,1.62-3.43C483.34,446.26,483.74,439.85,484.24,433.09Zm1.22,108.85c1.12-.28,1.84-.45,2.56-.65,2.05-.55,4.1-1.09,6.14-1.67,5.48-1.54,6.61-3.09,6.63-9-4.55-.7-9.13-1.23-13.62-2.21-1.59-.35-3-1.77-4.43-2.71,1.17-1.36,2.08-3.22,3.56-4,4-2.05,8.19-3.64,12.32-5.39,2.46-1,4.5-2.3,3-5.9l-12.17,1.47c-7.07.84-8.67,2.57-9.18,9.69C479.78,528.85,482.85,535.17,485.46,541.94Zm45.48-18.6,1.53-.22c1.49-4.19,3-8.36,4.46-12.57s-.36-7.19-4.7-7.91c-5.81-.95-11.11.95-16.16,3.52a3.92,3.92,0,0,0-1.59,3c0,.72,1.19,1.77,2.08,2.11a48.22,48.22,0,0,0,6.79,2c3.12.71,5,2.31,5.56,5.66C529.15,520.5,530.24,521.89,530.94,523.34ZM495.7,479.85l1.07.69c4.8-1.25,10.33-1.43,14.2-4.06,3.66-2.49,5.56-7.55,8.24-11.48l-1.3-1.25c-6.7,3.66-13.5,7.17-20,11.12C496.61,475.64,496.4,478.15,495.7,479.85Zm16.51,54.86h9.19c6.81,0,9.43-2.55,10.13-10.58-4.81.85-9.47,1.42-14,2.54C512.12,528,512.05,528.37,512.21,534.71Z" transform="translate(-390 -390)"/><path d="M542.14,551.66c6.57-3.25,15.22-.39,18,5.7,3.59,8,2.74,15.78-1.51,23.32-1.15,2.06-2.29,2.59-3.81.39a16.58,16.58,0,0,0-10.11-6.6c-4.25-1.05-6.19-4.44-7.78-8-.25-.57.93-2.5,1.68-2.65a16.93,16.93,0,0,1,5.2.22c2.55.33,5.17.86,6.06-2.53a6.15,6.15,0,0,0-3.22-7.58C545.24,553.17,543.81,552.5,542.14,551.66Z" transform="translate(-390 -390)"/></svg>