<?xml version="1.0" encoding="utf-8"?>
<!-- Generator: Adobe Illustrator 24.1.2, SVG Export Plug-In . SVG Version: 6.00 Build 0)  -->
<svg version="1.1" id="Capa_1" xmlns="http://www.w3.org/2000/svg" xmlns:xlink="http://www.w3.org/1999/xlink" x="0px" y="0px"
	 viewBox="0 0 50 50" style="enable-background:new 0 0 50 50;" height="50" width="50" xml:space="preserve">
<style type="text/css">
	.st0{fill:#FFFFFF;}
</style>
<g>
	<g id="XMLID_1_">
		<g>
			<path class="st0" d="M37,25.9c0.4,0.3,0.6,0.9,0.3,1.4c-0.1,0.3-0.4,0.5-0.7,0.6s-0.6,0.1-0.9-0.1l-1.5-0.8l0.2-0.6l0.5-1.4
				L37,25.9z"/>
			<polygon class="st0" points="33.5,24.1 33.2,25 32.8,26.2 30.4,24.9 30.3,22.6 			"/>
			<path class="st0" d="M36.7,38c0.2,0.2,0.3,0.4,0.3,0.7s-0.1,0.5-0.3,0.7c-0.4,0.4-1,0.4-1.3,0l-1.5-1.5l1.3-1.3L36.7,38z"/>
			<path class="st0" d="M31.7,44.6h0.2c0,0.2-0.1,0.4-0.3,0.6c-0.4,0.4-1,0.4-1.3,0l-1.5-1.5l0.7-0.7l0.6-0.6l1.5,1.5c0,0,0,0,0,0
				V44.6z"/>
			<path class="st0" d="M34,35.3l-1.4,1.4l-2.8-2.1c0,0-0.1,0-0.1,0c-0.1,0-0.1-0.1-0.1-0.1c-0.1,0-0.1,0-0.2,0c0,0-0.1,0-0.1,0
				c0,0-0.1,0-0.2,0c0,0-0.1,0-0.1,0.1c-0.1,0-0.1,0-0.1,0.1c0,0-0.1,0-0.1,0.1l-2.5,2.5c0,0,0,0,0,0.1c-0.1,0.1-0.1,0.1-0.1,0.2
				c0,0,0,0.1,0,0.2c0,0.1,0,0.1,0,0.2c0,0,0,0.1,0,0.1c0,0.1,0,0.1,0,0.2c0,0,0,0,0,0.1c0,0.1,0.1,0.1,0.1,0.2l2.8,2.7l-0.7,0.7
				l-0.6,0.6l-1.2-1.2h0.3v-1.7H25v-1.7h-1.2l6.4-6.3L34,35.3z"/>
			<rect x="7.5" y="11.2" class="st0" width="1.7" height="1.7"/>
			<ellipse class="st0" cx="17.1" cy="15.8" rx="1.3" ry="1.3"/>
			<path class="st0" d="M4.8,23.9l-1.5,1.9L2,24.6c-0.4-0.4-0.5-1-0.1-1.5c0.2-0.3,0.4-0.4,0.8-0.5c0.3,0,0.6,0,0.8,0.2L4.8,23.9z"
				/>
			<path class="st0" d="M17.3,25.3L17.3,25.3c-0.2,0.1-0.4,0.2-0.6,0.3l-3.2,3.2l-4,0.6L9.8,28l0.2-1.2l3.8-1.5
				c0.1,0,0.1-0.1,0.2-0.1c0.7,0.1,1.3,0.2,2,0.2C16.4,25.4,16.9,25.4,17.3,25.3z"/>
			<polygon class="st0" points="19.5,29.6 17.4,31.7 15.3,29.4 17.3,27.4 			"/>
			<polygon class="st0" points="8.4,26.6 7.9,29 4.6,26.9 5.5,25.7 6.1,24.9 			"/>
			<path class="st0" d="M13.2,5.8l2.3,7.6c-0.7,0.5-1.2,1.3-1.2,2.2l-6.5,3c-0.6-1.2-0.9-2.6-0.9-4c0-0.6,0-1.1,0.1-1.7h0.6v1.7h1.7
				v-1.7h1.7v-1.7H9.2V9.6H8.3C9.4,7.8,11.1,6.5,13.2,5.8z"/>
			<rect x="40.8" y="33.7" width="1.7" height="1.7"/>
			<rect x="39.2" y="35.4" width="1.7" height="1.7"/>
			<rect x="39.2" y="32.1" width="1.7" height="1.7"/>
			<rect x="37.5" y="33.7" width="1.7" height="1.7"/>
			<path d="M37.9,24.5c1.2,0.8,1.6,2.3,0.9,3.6c-0.3,0.7-0.9,1.2-1.7,1.4c-0.3,0.1-0.6,0.1-0.8,0.1c-0.5,0-0.9-0.1-1.3-0.3l-2.2-1.2
				l-3.5-1.8l-2.1,0l8.5,8.5l2.1,2.1c0.5,0.5,0.8,1.1,0.8,1.8c0,0.7-0.3,1.3-0.8,1.8c-0.5,0.5-1.2,0.8-1.9,0.8c-0.3,0-0.6,0-0.9-0.2
				c-0.3-0.1-0.7-0.3-0.9-0.6l-2-2l-2.7-2L28,37.8l2.8,2.7l2.1,2.1c0.1,0.1,0.2,0.2,0.2,0.3h-1.4v1c0,0,0,0,0,0l-1.5-1.5l-0.6,0.6
				l-0.7,0.7l1.5,1.5c0.4,0.4,1,0.4,1.3,0c0.2-0.2,0.2-0.4,0.3-0.6h1.4v1c-0.1,0.3-0.3,0.5-0.5,0.8c-0.5,0.5-1.2,0.8-1.9,0.8
				c-0.7,0-1.3-0.3-1.8-0.8L27,44.2l-2-2v-1h1.4l1.2,1.2l0.6-0.6l0.7-0.7l-2.8-2.7c-0.1-0.1-0.1-0.1-0.1-0.2c0,0,0,0,0-0.1
				c0-0.1,0-0.1,0-0.2c0,0,0-0.1,0-0.1c0-0.1,0-0.1,0-0.2c0,0,0-0.1,0-0.2c0-0.1,0.1-0.1,0.1-0.2c0,0,0,0,0-0.1l2.5-2.5
				c0,0,0.1,0,0.1-0.1c0,0,0.1-0.1,0.1-0.1c0,0,0.1,0,0.1-0.1c0.1,0,0.1,0,0.2,0c0.1,0,0.1,0,0.1,0c0.1,0,0.1,0,0.2,0
				c0.1,0,0.1,0.1,0.1,0.1c0,0,0.1,0,0.1,0l2.8,2.1l1.4-1.4l-3.8-3.7l-6.4,6.3h-0.5v1.7h-1l-0.3-0.3c0,0,0,0,0,0l-5.2-5.7
				c0.1,0.1,0.3,0.1,0.4,0.1c0.2,0,0.4-0.1,0.6-0.2l0.6-0.6l3.8,4.1l6.8-6.7L24.6,26c-0.3-0.3-0.3-0.9,0-1.2
				c0.2-0.2,0.4-0.2,0.6-0.2l3.5,0l0-2.5l-4.9,0.1c-1.7,1.7-3.9,2.9-6.5,3.2c-0.4,0.1-0.9,0.1-1.3,0.1c-0.7,0-1.3-0.1-2-0.2
				c-0.1,0.1-0.1,0.1-0.2,0.1L10,26.8L9.8,28l-0.3,1.4l4-0.6L13.4,29c-0.2,0.1-0.2,0.4-0.2,0.6c0,0.2,0.1,0.4,0.2,0.6l0.3,0.3
				l-5.1,0.7c0,0-0.1,0-0.1,0c-0.1,0-0.2,0-0.3-0.1c0,0-0.1,0-0.1,0c0,0-0.1,0-0.1,0l-5-3.3c0,0,0,0,0,0c0,0,0,0-0.1,0l-2-1.9
				c-1-1-1.2-2.5-0.3-3.7c0.4-0.6,1.1-1,1.9-1.1c0.8-0.1,1.5,0.1,2.1,0.5l2,1.5l3,2.2l2.1-0.9c-3.8-1.7-6.4-5.5-6.4-9.9
				C5.1,8.6,10,3.7,16,3.7c6,0,10.9,4.9,10.9,10.8c0,2.2-0.7,4.2-1.8,5.9l4.3,0c0,0,0,0,0,0c0,0,0,0,0,0c0.1,0,0.2,0,0.2,0
				c0,0,0.1,0,0.1,0c0,0,0,0,0,0l5.1,2.5L37.9,24.5C37.9,24.4,37.9,24.4,37.9,24.5z M37.4,27.3c0.3-0.5,0.1-1.1-0.3-1.4l-2-1
				l-0.5,1.4l-0.2,0.6l1.5,0.8c0.3,0.1,0.6,0.2,0.9,0.1S37.2,27.6,37.4,27.3z M36.9,38.6c0-0.3-0.1-0.5-0.3-0.7l-1.5-1.5l-1.3,1.3
				l1.5,1.5c0.4,0.4,1,0.4,1.3,0C36.8,39.1,36.9,38.9,36.9,38.6z M33.2,25l0.3-0.8l-3.2-1.6l0.1,2.3l2.4,1.3L33.2,25z M25.2,14.6
				c0-5.1-4.1-9.2-9.2-9.2c-0.4,0-0.8,0-1.2,0.1l2.2,7.4c0,0,0.1,0,0.1,0c1.6,0,2.9,1.3,2.9,2.9c0,1.6-1.3,2.9-2.9,2.9
				c-1.1,0-2-0.6-2.5-1.5l-6,2.7c1.7,2.3,4.4,3.7,7.4,3.7C21.1,23.7,25.2,19.6,25.2,14.6z M18.4,15.8c0-0.7-0.6-1.3-1.3-1.3
				c-0.7,0-1.3,0.6-1.3,1.3c0,0.7,0.6,1.3,1.3,1.3C17.9,17.1,18.4,16.5,18.4,15.8z M15.5,13.4l-2.3-7.6c-2,0.7-3.8,2-4.9,3.7H7.5V11
				c0,0.1-0.1,0.1-0.1,0.2H5.8v1.7h1.1c-0.1,0.5-0.1,1.1-0.1,1.7c0,1.4,0.3,2.8,0.9,4l6.5-3C14.3,14.7,14.8,13.9,15.5,13.4z M7.9,29
				l0.5-2.4l-2.3-1.7l-0.6,0.8l-0.9,1.2L7.9,29z M3.3,25.8l1.5-1.9l-1.3-1c-0.3-0.2-0.5-0.3-0.8-0.2c-0.3,0-0.6,0.2-0.8,0.5
				c-0.3,0.4-0.3,1.1,0.1,1.5L3.3,25.8z"/>
			<rect x="35" y="42.9" width="1.7" height="1.7"/>
			<path d="M35,44.6v1.7h-1.7v-0.7c0.1-0.3,0.2-0.6,0.2-1H35z"/>
			<rect x="33.3" y="41.2" width="1.7" height="1.7"/>
			<path d="M33.6,44.5c0,0,0,0.1,0,0.1h-0.2v-1.2C33.5,43.7,33.6,44.1,33.6,44.5z"/>
			<path d="M33.3,44.6h0.2c0,0.3-0.1,0.7-0.2,1V44.6z"/>
			<path d="M33.3,43.4v1.2h-1.4c0,0,0-0.1,0-0.1c0-0.2-0.1-0.4-0.2-0.6v-1H33C33.2,43,33.3,43.2,33.3,43.4z"/>
			<path d="M33.3,42.9v0.5c-0.1-0.2-0.2-0.3-0.3-0.5H33.3z"/>
			<path d="M31.9,44.5c0,0,0,0.1,0,0.1h-0.2v-0.7C31.8,44,31.9,44.2,31.9,44.5z"/>
			<rect x="29.1" y="14.6" width="1.7" height="1.7"/>
			<path d="M30.8,12.9h-1.7c0-2.6-2.6-3.3-2.7-3.4l0.4-1.6C28.2,8.3,30.8,9.8,30.8,12.9z"/>
			<path class="st0" d="M29,30.4L22.3,37l-3.8-4.1l2.8-2.7c0.2-0.2,0.3-0.4,0.3-0.6c0-0.2-0.1-0.4-0.3-0.6l-3.4-3.3
				c-0.2-0.2-0.4-0.2-0.6-0.2l0-0.1c2.5-0.3,4.8-1.5,6.5-3.2l4.9-0.1l0,2.5l-3.5,0c-0.2,0-0.4,0.1-0.6,0.2c-0.3,0.3-0.3,0.9,0,1.2
				L29,30.4z"/>
			<polygon points="26.7,39.6 26.7,41.2 26.4,41.2 25,39.8 25,39.6 			"/>
			<polygon points="26.4,41.2 25,41.2 25,39.8 			"/>
			<polygon points="25,42.2 25,42.9 23.3,42.9 23.3,41.2 24,41.2 			"/>
			<polygon points="25,41.2 25,42.2 24,41.2 			"/>
			<path d="M25,39.8v1.4h-1l-0.3-0.3l-0.4-0.3v-1h1.4l0.1,0.1c0,0,0,0,0,0L25,39.8z"/>
			<polygon points="25,37.9 25,39.6 24.7,39.6 23.4,38.3 23.8,37.9 			"/>
			<polygon points="24.7,39.6 23.3,39.6 23.3,37.9 23.8,37.9 23.4,38.3 			"/>
			<polygon points="23.3,40.5 23.3,41.2 21.7,41.2 21.7,39.6 22.4,39.6 			"/>
			<polygon points="23.3,39.6 23.3,40.5 22.4,39.6 			"/>
			<path class="st0" d="M16,5.4c5.1,0,9.2,4.1,9.2,9.2c0,5.1-4.1,9.2-9.2,9.2c-3,0-5.7-1.5-7.4-3.7l6-2.7c0.5,0.9,1.4,1.5,2.5,1.5
				c1.6,0,2.9-1.3,2.9-2.9c0-1.6-1.3-2.9-2.9-2.9c0,0-0.1,0-0.1,0l-2.2-7.4C15.2,5.4,15.6,5.4,16,5.4z"/>
			<path d="M21.3,29c0.2,0.1,0.3,0.4,0.3,0.6c0,0.2-0.1,0.4-0.3,0.6l-2.8,2.7l-1.1-1.2l2.1-2.1l-2.2-2.2l-2,2L14.9,29c0,0,0,0-0.1,0
				c0,0-0.1-0.1-0.1-0.1c-0.1,0-0.1-0.1-0.1-0.1c-0.1,0-0.1,0-0.1,0c-0.1,0-0.1,0-0.2,0c0,0-0.1,0-0.1,0l-0.7,0.1l3.2-3.2
				c0.2-0.2,0.4-0.2,0.6-0.2c0.2,0,0.4,0.1,0.6,0.2L21.3,29z"/>
			<path d="M17.4,31.7l1.1,1.2l-0.6,0.6c-0.2,0.2-0.4,0.2-0.6,0.2c-0.1,0-0.3,0-0.4-0.1L14,30.5l-0.3,0l-0.3-0.3
				c-0.2-0.2-0.2-0.4-0.2-0.6c0-0.2,0.1-0.4,0.2-0.6l0.1-0.1l0.7-0.1c0,0,0.1,0,0.1,0c0.1,0,0.1,0,0.2,0c0.1,0,0.1,0,0.1,0
				c0.1,0,0.1,0,0.1,0.1c0.1,0,0.1,0.1,0.1,0.1c0,0,0,0,0.1,0l0.4,0.4l-0.2,0.2L17.4,31.7L17.4,31.7z"/>
			<polygon points="17.4,31.7 17.3,31.7 15.1,29.6 15.3,29.4 			"/>
			<path d="M14,30.5l2.9,3.2c-0.1,0-0.1-0.1-0.2-0.1l-3-3L14,30.5z"/>
			<rect x="9.2" y="11.2" width="1.7" height="1.7"/>
			<rect x="7.5" y="12.9" width="1.7" height="1.7"/>
			<path d="M9.2,9.6v1.7H7.5V11c0.2-0.5,0.5-1,0.8-1.5H9.2z"/>
			<path d="M7.5,9.6h0.8C8,10,7.7,10.5,7.5,11V9.6z"/>
			<path d="M7.5,11.2v1.7H6.9C7,12.3,7.2,11.8,7.5,11.2L7.5,11.2z"/>
			<path d="M5.8,11.2h1.6c-0.2,0.5-0.4,1.1-0.5,1.7H5.8V11.2z"/>
		</g>
		<g>
		</g>
	</g>
</g>
</svg>
