<?xml version="1.0" encoding="utf-8"?>
<!-- Generator: Adobe Illustrator 24.1.2, SVG Export Plug-In . SVG Version: 6.00 Build 0)  -->
<svg version="1.1" id="Capa_1" xmlns="http://www.w3.org/2000/svg" xmlns:xlink="http://www.w3.org/1999/xlink" x="0px" y="0px"
	 viewBox="0 0 512 512" style="enable-background:new 0 0 512 512;" xml:space="preserve">
<style type="text/css">
	.st0{fill:#F6E266;}
	.st1{fill:#F1D333;}
	.st2{fill:#E49542;}
	.st3{fill:#DD5790;}
	.st4{fill:#DA387D;}
	.st5{fill:#ECF4FF;}
	.st6{fill:#CBE2FF;}
	.st7{fill:#9DC6FB;}
</style>
<g>
	<g>
		<path class="st0" d="M304.5,383.3c0,0,20,17.2,20,44.8s-25.1,49.1-25.1,49.1l-8.1-13.1L256,504.5l-35.4-40.4l-8.1,13.1
			c0,0-25.1-21.5-25.1-49.1s20-44.8,20-44.8L304.5,383.3L304.5,383.3z"/>
	</g>
	<g>
		<path class="st1" d="M305.8,384.5c1.1,5.1,1.8,10.5,1.8,16c0,40.7-33,73.7-73.7,73.7c-1.5,0-3-0.1-4.4-0.1l26.6,30.4l35.4-40.4
			l8.1,13.1c0,0,25.1-21.5,25.1-49.1C324.5,404.7,310.2,388.8,305.8,384.5L305.8,384.5z"/>
	</g>
	<g>
		<path class="st2" d="M273.2,383.3c0,0,13.1,13.1,13.1,34.3c0,25.3-30.3,38.4-30.3,38.4s-30.3-13.1-30.3-38.4
			c0-21.2,13.1-34.3,13.1-34.3L273.2,383.3z"/>
	</g>
	<g>
		<path class="st3" d="M304.5,257v126.3h80.8v-79.8L304.5,257z"/>
	</g>
	<g>
		<path class="st4" d="M362.6,290.4L304.5,257v126.3h26.1C337.2,366.7,351,330.1,362.6,290.4L362.6,290.4z"/>
	</g>
	<g>
		<path class="st3" d="M207.5,257v126.3h-80.8v-79.8L207.5,257z"/>
	</g>
	<g>
		<path class="st4" d="M149.4,290.4l58.1-33.4v126.3h-26.1C174.8,366.7,161,330.1,149.4,290.4L149.4,290.4z"/>
	</g>
	<g>
		<path class="st5" d="M304.5,383.3c0,0,52.5-127.3,52.5-194C357,62,256,7.5,256,7.5S155,62,155,189.3c0,66.7,52.5,194,52.5,194
			H304.5z"/>
	</g>
	<g>
		<path class="st6" d="M202.8,330.7c-5.1,0-10.2-0.3-15.2-0.9c10.7,31,20,53.4,20,53.4h97c0,0,52.5-127.3,52.5-194
			c0-6.3-0.3-12.4-0.7-18.3C348.8,260.7,282.9,330.7,202.8,330.7L202.8,330.7z"/>
	</g>
	<g>
		<path class="st3" d="M179.7,88.3h152.6C302.4,32.6,256,7.5,256,7.5S209.6,32.6,179.7,88.3z"/>
	</g>
	<g>
		<circle class="st3" cx="256" cy="210.5" r="60.6"/>
	</g>
	<g>
		<path class="st4" d="M290.7,160.9c6.9,9.8,10.9,21.8,10.9,34.7c0,33.5-27.1,60.6-60.6,60.6c-12.9,0-24.9-4.1-34.7-10.9
			c11,15.7,29.1,25.9,49.7,25.9c33.5,0,60.6-27.1,60.6-60.6C316.6,190,306.4,171.8,290.7,160.9L290.7,160.9z"/>
	</g>
	<g>
		<circle class="st7" cx="256" cy="210.5" r="28.3"/>
	</g>
	<g>
		<path d="M389,297l-39.2-22.6c8.3-30.3,14.7-61.2,14.7-85.1c0-12.6-1-25.1-2.9-37.1c-0.7-4.1-4.5-6.9-8.6-6.2
			c-4.1,0.7-6.9,4.5-6.2,8.6c1.8,11.3,2.7,23,2.7,34.8c0,57.4-40.8,163.1-50.1,186.5h-86.9c-2.2-5.5-6.2-15.6-10.9-28.6
			c-1.4-3.9-5.7-5.9-9.6-4.5c-3.9,1.4-5.9,5.7-4.5,9.6c3.5,9.5,6.6,17.5,8.9,23.4h-62.2v-68l32.3-18.6c2.8,9.5,6,19.5,9.5,29.9
			c1,3.1,4,5.1,7.1,5.1c0.8,0,1.6-0.1,2.4-0.4c3.9-1.3,6.1-5.6,4.7-9.5c-18.1-54.4-27.7-97.6-27.7-125.1c0-33.8,7.3-65.2,21.7-93.5
			h143.5c4.1,8.1,7.8,16.7,11,26c1.1,3.1,4,5.1,7.1,5.1c0.8,0,1.6-0.1,2.4-0.4c3.9-1.3,6-5.6,4.7-9.5C326,37.5,262.3,2.4,259.6,0.9
			c-2.2-1.2-4.9-1.2-7.1,0c-0.6,0.3-15.6,8.5-34.1,25.6c-3,2.8-3.2,7.6-0.4,10.6s7.6,3.2,10.6,0.4c11.9-11,22.2-18,27.4-21.3
			c10.2,6.4,40,27.2,63.3,64.6H192.7c3.9-6.3,8.3-12.5,13-18.5c2.6-3.3,2-8-1.3-10.5c-3.3-2.6-8-2-10.5,1.3
			c-30.8,39.2-46.4,85-46.4,136.3c0,21.2,4.9,49.7,14.7,85.1L123,297c-2.3,1.3-3.8,3.8-3.8,6.5v79.8c0,4.1,3.4,7.5,7.5,7.5h64.8
			c-5.7,8.7-11.5,21.4-11.5,37.3c0,30.7,26.5,53.9,27.7,54.8c1.7,1.4,3.9,2.1,6,1.7c2.2-0.3,4.1-1.6,5.2-3.5l2.8-4.5l28.7,32.7
			c1.4,1.6,3.5,2.6,5.6,2.6c2.2,0,4.2-0.9,5.6-2.6l28.7-32.7l2.7,4.5c1.2,1.9,3.1,3.1,5.2,3.5c2.2,0.3,4.4-0.3,6-1.7
			c1.1-1,27.7-24.1,27.7-54.8c0-15.9-5.8-28.6-11.5-37.3h64.8c4.1,0,7.5-3.4,7.5-7.5v-79.8C392.8,300.8,391.4,298.3,389,297L389,297
			z M278.8,417.6c0,15.8-16,26.3-22.8,30c-6.8-3.7-22.8-14.1-22.8-30c0-13.1,6-22.7,9.1-26.8h27.4
			C272.8,394.9,278.8,404.5,278.8,417.6z M300.8,465.1l-3-4.9c-1.2-2-3.4-3.3-5.8-3.5c-2.4-0.2-4.7,0.7-6.3,2.5l-29.7,34l-29.7-34
			c-1.6-1.8-3.9-2.7-6.3-2.5c-2.4,0.2-4.5,1.5-5.8,3.5l-3,4.9c-6.6-7.7-16.2-21.4-16.2-37c0-19,11.1-32.6,15.6-37.3h14.1
			c-3.4,6.7-6.5,15.8-6.5,26.8c0,29.8,33.4,44.7,34.8,45.3c1,0.4,2,0.6,3,0.6c1,0,2-0.2,3-0.6c1.4-0.6,34.8-15.4,34.8-45.3
			c0-11-3.1-20.1-6.5-26.8h14.1c4.5,4.7,15.6,18.3,15.6,37.3C317,443.7,307.4,457.4,300.8,465.1z M377.8,375.8h-62.2
			c6.4-16.4,19.1-50,30-86.5l32.3,18.5L377.8,375.8L377.8,375.8z"/>
		<path d="M187.9,210.5c0,37.6,30.6,68.1,68.1,68.1s68.1-30.6,68.1-68.1c0-37.6-30.6-68.1-68.1-68.1S187.9,173,187.9,210.5z
			 M309.1,210.5c0,29.3-23.8,53.1-53.1,53.1c-29.3,0-53.1-23.8-53.1-53.1c0-29.3,23.8-53.1,53.1-53.1
			C285.3,157.4,309.1,181.3,309.1,210.5z"/>
		<path d="M220.2,210.5c0,19.7,16.1,35.8,35.8,35.8c19.7,0,35.8-16.1,35.8-35.8c0-19.7-16.1-35.8-35.8-35.8
			C236.3,174.8,220.2,190.8,220.2,210.5z M276.8,210.5c0,11.5-9.3,20.8-20.8,20.8c-11.5,0-20.8-9.3-20.8-20.8
			c0-11.5,9.3-20.8,20.8-20.8C267.5,189.8,276.8,199.1,276.8,210.5z"/>
	</g>
</g>
</svg>
